<?xml version="1.0" encoding="utf-8"?>
<svg xmlns="http://www.w3.org/2000/svg" width="600" height="400" viewBox="0 0 600 400">
<defs>
  <clipPath id="clip7400">
    <rect x="0" y="0" width="600" height="400"/>
  </clipPath>
</defs>
<polygon clip-path="url(#clip7400)" points="
0,400 600,400 600,0 0,0 
  " fill="#363c46" fill-opacity="1"/>
<defs>
  <clipPath id="clip7401">
    <rect x="120" y="0" width="421" height="400"/>
  </clipPath>
</defs>
<polygon clip-path="url(#clip7400)" points="
47.376,375.869 580.315,375.869 580.315,11.811 47.376,11.811 
  " fill="#30343b" fill-opacity="1"/>
<defs>
  <clipPath id="clip7402">
    <rect x="47" y="11" width="534" height="365"/>
  </clipPath>
</defs>
<polyline clip-path="url(#clip7402)" style="stroke:#adb2b7; stroke-width:0.5; stroke-opacity:0.1; fill:none" points="
  62.4592,375.869 62.4592,11.811 
  "/>
<polyline clip-path="url(#clip7402)" style="stroke:#adb2b7; stroke-width:0.5; stroke-opacity:0.1; fill:none" points="
  142.478,375.869 142.478,11.811 
  "/>
<polyline clip-path="url(#clip7402)" style="stroke:#adb2b7; stroke-width:0.5; stroke-opacity:0.1; fill:none" points="
  222.497,375.869 222.497,11.811 
  "/>
<polyline clip-path="url(#clip7402)" style="stroke:#adb2b7; stroke-width:0.5; stroke-opacity:0.1; fill:none" points="
  302.515,375.869 302.515,11.811 
  "/>
<polyline clip-path="url(#clip7402)" style="stroke:#adb2b7; stroke-width:0.5; stroke-opacity:0.1; fill:none" points="
  382.534,375.869 382.534,11.811 
  "/>
<polyline clip-path="url(#clip7402)" style="stroke:#adb2b7; stroke-width:0.5; stroke-opacity:0.1; fill:none" points="
  462.553,375.869 462.553,11.811 
  "/>
<polyline clip-path="url(#clip7402)" style="stroke:#adb2b7; stroke-width:0.5; stroke-opacity:0.1; fill:none" points="
  542.572,375.869 542.572,11.811 
  "/>
<polyline clip-path="url(#clip7402)" style="stroke:#adb2b7; stroke-width:0.5; stroke-opacity:0.1; fill:none" points="
  47.376,365.566 580.315,365.566 
  "/>
<polyline clip-path="url(#clip7402)" style="stroke:#adb2b7; stroke-width:0.5; stroke-opacity:0.1; fill:none" points="
  47.376,279.703 580.315,279.703 
  "/>
<polyline clip-path="url(#clip7402)" style="stroke:#adb2b7; stroke-width:0.5; stroke-opacity:0.1; fill:none" points="
  47.376,193.84 580.315,193.84 
  "/>
<polyline clip-path="url(#clip7402)" style="stroke:#adb2b7; stroke-width:0.5; stroke-opacity:0.1; fill:none" points="
  47.376,107.977 580.315,107.977 
  "/>
<polyline clip-path="url(#clip7402)" style="stroke:#adb2b7; stroke-width:0.5; stroke-opacity:0.1; fill:none" points="
  47.376,22.1138 580.315,22.1138 
  "/>
<polyline clip-path="url(#clip7400)" style="stroke:#adb2b7; stroke-width:1; stroke-opacity:1; fill:none" points="
  47.376,375.869 580.315,375.869 
  "/>
<polyline clip-path="url(#clip7400)" style="stroke:#adb2b7; stroke-width:1; stroke-opacity:1; fill:none" points="
  47.376,375.869 47.376,11.811 
  "/>
<polyline clip-path="url(#clip7400)" style="stroke:#adb2b7; stroke-width:1; stroke-opacity:1; fill:none" points="
  62.4592,375.869 62.4592,370.408 
  "/>
<polyline clip-path="url(#clip7400)" style="stroke:#adb2b7; stroke-width:1; stroke-opacity:1; fill:none" points="
  142.478,375.869 142.478,370.408 
  "/>
<polyline clip-path="url(#clip7400)" style="stroke:#adb2b7; stroke-width:1; stroke-opacity:1; fill:none" points="
  222.497,375.869 222.497,370.408 
  "/>
<polyline clip-path="url(#clip7400)" style="stroke:#adb2b7; stroke-width:1; stroke-opacity:1; fill:none" points="
  302.515,375.869 302.515,370.408 
  "/>
<polyline clip-path="url(#clip7400)" style="stroke:#adb2b7; stroke-width:1; stroke-opacity:1; fill:none" points="
  382.534,375.869 382.534,370.408 
  "/>
<polyline clip-path="url(#clip7400)" style="stroke:#adb2b7; stroke-width:1; stroke-opacity:1; fill:none" points="
  462.553,375.869 462.553,370.408 
  "/>
<polyline clip-path="url(#clip7400)" style="stroke:#adb2b7; stroke-width:1; stroke-opacity:1; fill:none" points="
  542.572,375.869 542.572,370.408 
  "/>
<polyline clip-path="url(#clip7400)" style="stroke:#adb2b7; stroke-width:1; stroke-opacity:1; fill:none" points="
  47.376,365.566 55.3701,365.566 
  "/>
<polyline clip-path="url(#clip7400)" style="stroke:#adb2b7; stroke-width:1; stroke-opacity:1; fill:none" points="
  47.376,279.703 55.3701,279.703 
  "/>
<polyline clip-path="url(#clip7400)" style="stroke:#adb2b7; stroke-width:1; stroke-opacity:1; fill:none" points="
  47.376,193.84 55.3701,193.84 
  "/>
<polyline clip-path="url(#clip7400)" style="stroke:#adb2b7; stroke-width:1; stroke-opacity:1; fill:none" points="
  47.376,107.977 55.3701,107.977 
  "/>
<polyline clip-path="url(#clip7400)" style="stroke:#adb2b7; stroke-width:1; stroke-opacity:1; fill:none" points="
  47.376,22.1138 55.3701,22.1138 
  "/>
<g clip-path="url(#clip7400)">
<text style="fill:#ffffff; fill-opacity:1; font-family:Arial,Helvetica Neue,Helvetica,sans-serif; font-size:12; text-anchor:middle;" transform="rotate(0, 62.4592, 389.669)" x="62.4592" y="389.669">0</text>
</g>
<g clip-path="url(#clip7400)">
<text style="fill:#ffffff; fill-opacity:1; font-family:Arial,Helvetica Neue,Helvetica,sans-serif; font-size:12; text-anchor:middle;" transform="rotate(0, 142.478, 389.669)" x="142.478" y="389.669">1</text>
</g>
<g clip-path="url(#clip7400)">
<text style="fill:#ffffff; fill-opacity:1; font-family:Arial,Helvetica Neue,Helvetica,sans-serif; font-size:12; text-anchor:middle;" transform="rotate(0, 222.497, 389.669)" x="222.497" y="389.669">2</text>
</g>
<g clip-path="url(#clip7400)">
<text style="fill:#ffffff; fill-opacity:1; font-family:Arial,Helvetica Neue,Helvetica,sans-serif; font-size:12; text-anchor:middle;" transform="rotate(0, 302.515, 389.669)" x="302.515" y="389.669">3</text>
</g>
<g clip-path="url(#clip7400)">
<text style="fill:#ffffff; fill-opacity:1; font-family:Arial,Helvetica Neue,Helvetica,sans-serif; font-size:12; text-anchor:middle;" transform="rotate(0, 382.534, 389.669)" x="382.534" y="389.669">4</text>
</g>
<g clip-path="url(#clip7400)">
<text style="fill:#ffffff; fill-opacity:1; font-family:Arial,Helvetica Neue,Helvetica,sans-serif; font-size:12; text-anchor:middle;" transform="rotate(0, 462.553, 389.669)" x="462.553" y="389.669">5</text>
</g>
<g clip-path="url(#clip7400)">
<text style="fill:#ffffff; fill-opacity:1; font-family:Arial,Helvetica Neue,Helvetica,sans-serif; font-size:12; text-anchor:middle;" transform="rotate(0, 542.572, 389.669)" x="542.572" y="389.669">6</text>
</g>
<g clip-path="url(#clip7400)">
<text style="fill:#ffffff; fill-opacity:1; font-family:Arial,Helvetica Neue,Helvetica,sans-serif; font-size:12; text-anchor:end;" transform="rotate(0, 41.376, 370.066)" x="41.376" y="370.066">-1.0</text>
</g>
<g clip-path="url(#clip7400)">
<text style="fill:#ffffff; fill-opacity:1; font-family:Arial,Helvetica Neue,Helvetica,sans-serif; font-size:12; text-anchor:end;" transform="rotate(0, 41.376, 284.203)" x="41.376" y="284.203">-0.5</text>
</g>
<g clip-path="url(#clip7400)">
<text style="fill:#ffffff; fill-opacity:1; font-family:Arial,Helvetica Neue,Helvetica,sans-serif; font-size:12; text-anchor:end;" transform="rotate(0, 41.376, 198.34)" x="41.376" y="198.34">0.0</text>
</g>
<g clip-path="url(#clip7400)">
<text style="fill:#ffffff; fill-opacity:1; font-family:Arial,Helvetica Neue,Helvetica,sans-serif; font-size:12; text-anchor:end;" transform="rotate(0, 41.376, 112.477)" x="41.376" y="112.477">0.5</text>
</g>
<g clip-path="url(#clip7400)">
<text style="fill:#ffffff; fill-opacity:1; font-family:Arial,Helvetica Neue,Helvetica,sans-serif; font-size:12; text-anchor:end;" transform="rotate(0, 41.376, 26.6138)" x="41.376" y="26.6138">1.0</text>
</g>
<polyline clip-path="url(#clip7402)" style="stroke:#ff0000; stroke-width:2; stroke-opacity:1; fill:none" points="
  62.4592,323.802 62.962,325.895 63.4648,327.941 63.9675,329.939 64.4703,331.888 64.9731,333.789 65.4758,335.64 65.9786,337.44 66.4814,339.19 66.9842,340.888 
  67.4869,342.533 67.9897,344.126 68.4925,345.666 68.9953,347.151 69.498,348.582 70.0008,349.958 70.5036,351.279 71.0063,352.543 71.5091,353.751 72.0119,354.903 
  72.5147,355.997 73.0174,357.033 73.5202,358.012 74.023,358.932 74.5257,359.793 75.0285,360.596 75.5313,361.339 76.0341,362.023 76.5368,362.647 77.0396,363.211 
  77.5424,363.714 78.0452,364.158 78.5479,364.541 79.0507,364.863 79.5535,365.125 80.0562,365.326 80.559,365.466 81.0618,365.546 81.5646,365.565 82.0673,365.523 
  82.5701,365.42 83.0729,365.257 83.5757,365.033 84.0784,364.75 84.5812,364.406 85.084,364.003 85.5867,363.54 86.0895,363.018 86.5923,362.438 87.0951,361.799 
  87.5978,361.102 88.1006,360.348 88.6034,359.537 89.1062,358.669 89.6089,357.746 90.1117,356.768 90.6145,355.736 91.1172,354.65 91.62,353.512 92.1228,352.322 
  92.6256,351.081 93.1283,349.79 93.6311,348.45 94.1339,347.063 94.6367,345.629 95.1394,344.15 95.6422,342.626 96.145,341.06 96.6477,339.453 97.1505,337.806 
  97.6533,336.121 98.1561,334.399 98.6588,332.643 99.1616,330.853 99.6644,329.032 100.167,327.181 100.67,325.303 101.173,323.399 101.675,321.473 102.178,319.525 
  102.681,317.558 103.184,315.574 103.687,313.576 104.189,311.567 104.692,309.548 105.195,307.523 105.698,305.494 106.2,303.464 106.703,301.435 107.206,299.411 
  107.709,297.394 108.212,295.387 108.714,293.394 109.217,291.418 109.72,289.461 110.223,287.527 110.725,285.62 111.228,283.742 111.731,281.897 112.234,280.089 
  112.736,278.321 113.239,276.596 113.742,274.918 114.245,273.291 114.748,271.718 115.25,270.204 115.753,268.751 116.256,267.364 116.759,266.047 117.261,264.802 
  117.764,263.635 118.267,262.55 118.77,261.549 119.273,260.637 119.775,259.818 120.278,259.096 120.781,258.475 121.284,257.959 121.786,257.551 122.289,257.257 
  122.792,257.079 123.295,257.022 123.797,257.089 124.3,257.285 124.803,257.614 125.306,258.078 125.809,258.681 126.311,259.427 126.814,260.32 127.317,261.361 
  127.82,262.555 128.322,263.904 128.825,265.41 129.328,267.074 129.831,268.9 130.334,270.888 130.836,273.037 131.339,275.35 131.842,277.824 132.345,280.458 
  132.847,283.251 133.35,286.198 133.853,289.296 134.356,292.538 134.858,295.918 135.361,299.428 135.864,303.057 136.367,306.794 136.87,310.625 137.372,314.535 
  137.875,318.505 138.378,322.516 138.881,326.544 139.383,330.565 139.886,334.55 140.389,338.468 140.892,342.287 141.395,345.968 141.897,349.474 142.4,352.76 
  142.903,355.783 143.406,358.494 143.908,360.844 144.411,362.78 144.914,364.248 145.417,365.195 145.919,365.563 146.422,365.297 146.925,364.344 147.428,362.65 
  147.931,360.164 148.433,356.841 148.936,352.638 149.439,347.519 149.942,341.457 150.444,334.431 150.947,326.432 151.45,317.459 151.953,307.526 152.455,296.657 
  152.958,284.894 153.461,272.289 153.964,258.911 154.467,244.844 154.969,230.187 155.472,215.051 155.975,199.561 156.478,183.856 156.98,168.08 157.483,152.391 
  157.986,136.946 158.489,121.908 158.992,107.439 159.494,93.6976 159.997,80.8339 160.5,68.9887 161.003,58.289 161.505,48.8454 162.008,40.7495 162.511,34.0713 
  163.014,28.8581 163.516,25.1329 164.019,22.8941 164.522,22.1152 165.025,22.7463 165.528,24.7148 166.03,27.9273 166.533,32.2728 167.036,37.6244 167.539,43.8431 
  168.041,50.7811 168.544,58.2844 169.047,66.1969 169.55,74.3626 170.053,82.6289 170.555,90.8487 171.058,98.8823 171.561,106.599 172.064,113.878 172.566,120.609 
  173.069,126.691 173.572,132.036 174.075,136.562 174.577,140.199 175.08,142.885 175.583,144.563 176.086,145.186 176.589,144.713 177.091,143.11 177.594,140.355 
  178.097,136.433 178.6,131.345 179.102,125.112 179.605,117.777 180.108,109.414 180.611,100.135 181.114,90.0987 181.616,79.518 182.119,68.6691 182.622,57.8979 
  183.125,47.6237 183.627,38.3396 184.13,30.6065 184.633,25.0407 185.136,22.2917 185.638,23.0104 186.141,27.8079 186.644,37.2032 187.147,51.565 187.65,71.0487 
  188.152,95.5364 188.655,124.585 189.158,157.391 189.661,192.785 190.163,229.252 190.666,264.993 191.169,298.032 191.672,326.347 192.175,348.032 192.677,361.477 
  193.18,365.526 193.683,359.618 194.186,343.878 194.688,319.137 195.191,286.892 195.694,249.186 196.197,208.434 196.699,167.212 197.202,128.024 197.705,93.0941 
  198.208,64.1903 198.711,42.5086 199.213,28.6242 199.716,22.5088 200.219,23.6062 200.722,30.9481 201.224,43.2926 201.727,59.265 202.23,77.484 202.733,96.6632 
  203.236,115.68 203.738,133.611 204.241,149.742 204.744,163.55 205.247,174.676 205.749,182.883 206.252,188.019 206.755,189.985 207.258,188.712 207.76,184.155 
  208.263,176.295 208.766,165.175 209.269,150.936 209.772,133.884 210.274,114.558 210.777,93.7994 211.28,72.8058 211.783,53.15 212.285,36.7386 212.788,25.6951 
  213.291,22.1542 213.794,27.9763 214.297,44.4091 214.799,71.7513 215.302,109.092 215.805,154.197 216.308,203.617 216.81,253.02 217.313,297.732 217.816,333.398 
  218.319,356.628 218.821,365.493 219.324,359.773 219.827,340.899 220.33,311.615 220.833,275.451 221.335,236.141 221.838,197.082 222.341,160.961 222.844,129.562 
  223.346,103.768 223.849,83.7043 224.352,68.9573 224.855,58.8327 225.358,52.5887 225.86,49.6319 226.363,49.6602 226.866,52.7523 227.369,59.3979 227.871,70.4602 
  228.374,87.0474 228.877,110.272 229.38,140.879 229.882,178.762 230.385,222.439 230.888,268.631 231.391,312.161 231.894,346.384 232.396,364.287 232.899,360.157 
  233.402,331.463 233.905,280.32 234.407,213.881 234.91,143.259 235.413,81.0984 235.916,38.4809 236.419,22.2048 236.921,33.363 237.424,67.6357 237.927,117.045 
  238.43,172.405 238.932,225.594 239.435,271.005 239.938,305.977 240.441,330.392 240.943,345.816 241.446,354.547 241.949,358.828 242.452,360.292 242.955,359.642 
  243.457,356.502 243.96,349.423 244.463,336.071 244.966,313.699 245.468,279.989 245.971,234.247 246.474,178.72 246.977,119.505 247.48,66.3617 247.982,30.8842 
  248.485,23.1751 248.988,48.0266 249.491,102.304 249.993,175.03 250.496,250.508 250.999,313.283 251.502,352.756 252.004,365.565 252.507,355.11 253.01,329.01 
  253.513,296.01 254.016,263.619 254.518,237.049 255.021,219.284 255.524,211.749 256.027,215.024 256.529,229.191 257.032,253.606 257.535,286.072 258.038,321.678 
  258.541,351.974 259.043,365.542 259.546,350.945 260.049,302.016 260.552,223.495 261.054,133.284 261.557,58.1064 262.06,22.9806 262.563,39.6739 263.065,101.156 
  263.568,185.627 264.071,267.331 264.574,327.341 265.077,358.749 265.579,365.298 266.082,356.401 266.585,342.17 267.088,330.455 267.59,325.935 268.093,330.21 
  268.596,341.916 269.099,356.396 269.602,365.365 270.104,357.727 270.607,322.955 271.11,257.213 271.613,169.669 272.115,83.8249 272.618,29.7261 273.121,29.1355 
  273.624,82.8653 274.126,169.861 274.629,259.099 275.132,325.486 275.635,359.23 276.138,364.993 276.64,354.849 277.143,341.187 277.646,332.803 278.149,333.916 
  278.651,344.182 279.154,358.327 279.657,365.536 280.16,350.705 280.663,300.375 281.165,213.72 281.668,112.343 282.171,37.3054 282.674,27.6201 283.176,92.4018 
  283.679,200.999 284.182,302.525 284.685,358.383 285.187,360.669 285.69,326.551 286.193,280.705 286.696,241.95 287.199,219.91 287.701,217.926 288.204,236.391 
  288.707,273.011 289.21,319.512 289.712,357.658 290.215,361.021 290.718,308.535 291.221,205.536 291.724,92.9498 292.226,26.9066 292.729,39.597 293.232,117.343 
  293.735,216.27 294.237,296.491 294.74,342.639 295.243,360.897 295.746,365.075 296.248,365.292 296.751,362.808 297.254,349.007 297.757,308.536 298.26,230.213 
  298.762,125.542 299.265,39.6561 299.768,30.2231 300.271,116.581 300.773,249.609 301.276,346.875 301.779,360.629 302.282,305.133 302.784,226.4 303.287,161.21 
  303.79,123.136 304.293,111.801 304.796,125.702 305.298,167.071 305.801,235.859 306.304,315.5 306.807,364.139 307.309,334.344 307.812,221.453 308.315,89.1472 
  308.818,23.2328 309.321,55.484 309.823,146.979 310.326,238.732 310.829,298.965 311.332,326.818 311.834,331.672 312.337,315.999 312.84,271.352 313.343,189.447 
  313.845,87.252 314.348,23.6831 314.851,64.4633 315.354,201.879 315.857,333.622 316.359,360.467 316.862,282.939 317.365,174.525 317.868,94.9189 318.37,56.0618 
  318.873,45.1575 319.376,53.8423 319.879,89.4162 320.382,166.019 320.884,275.348 321.387,358.532 321.89,336.43 322.393,204.225 322.895,65.0521 323.398,23.4114 
  323.901,81.3522 324.404,170.37 324.906,235.92 325.409,262.94 325.912,252.587 326.415,202.865 326.918,117.307 327.42,35.8995 327.923,39.5072 328.426,167.069 
  328.929,322.896 329.431,359.216 329.934,257.398 330.437,125.667 330.94,48.0468 331.443,24.6435 331.945,22.2129 332.448,24.1371 332.951,45.2333 333.454,119.808 
  333.956,251.941 334.459,358.108 334.962,323.955 335.465,167.238 335.967,40.1041 336.47,33.2589 336.973,100.65 337.476,163.842 337.979,185.863 338.481,159.755 
  338.984,92.7736 339.487,27.9919 339.99,54.2253 340.492,207.314 340.995,352.472 341.498,325.364 342.001,171.411 342.504,52.0517 343.006,22.1304 343.509,32.6545 
  344.012,34.8675 344.515,23.2703 345.017,38.7405 345.52,139.572 346.023,300.112 346.526,362.472 347.028,239.737 347.531,74.9327 348.034,22.509 348.537,63.043 
  349.04,108.146 349.542,110.585 350.045,67.8775 350.548,23.3079 351.051,71.1202 351.553,242.585 352.056,364.743 352.559,273.609 353.062,96.7615 353.565,22.7066 
  354.067,45.4423 354.57,74.8541 355.073,65.1744 355.576,29.1989 356.078,40.2461 356.581,175.567 357.084,342.831 357.587,326.866 358.089,151 358.592,32.986 
  359.095,31.3942 359.598,59.7074 360.101,55.6735 360.603,25.9757 361.106,48.3388 361.609,200.649 362.112,357.768 362.614,288.839 363.117,92.4318 363.62,22.7602 
  364.123,76.1062 364.626,126.887 365.128,117.897 365.631,56.7545 366.134,24.9439 366.637,145.525 367.139,336.176 367.642,326.204 368.145,145.465 368.648,33.6653 
  369.15,25.2992 369.653,31.5071 370.156,22.1779 370.659,61.8807 371.162,225.764 371.664,364.807 372.167,243.253 372.67,48.4932 373.173,44.6438 373.675,139.721 
  374.178,189.843 374.681,160.046 375.184,67.5038 375.687,28.1145 376.189,187.644 376.692,361.003 377.195,274.55 377.698,97.5433 378.2,27.7952 378.703,22.1146 
  379.206,27.4333 379.709,97.3031 380.211,279.141 380.714,356.764 381.217,158.572 381.72,22.1226 382.223,110.794 382.725,219.817 383.228,244.657 383.731,179.895 
  384.234,54.6882 384.736,52.5445 385.239,270.882 385.742,356.273 386.245,193.847 386.748,62.7923 387.25,31.597 387.753,45.1261 388.256,140.213 388.759,323.511 
  389.261,320.498 389.764,82.4925 390.267,45.61 390.77,195.684 391.272,285.898 391.775,282.086 392.278,182.461 392.781,36.1126 393.284,103.93 393.786,337.208 
  394.289,309.456 394.792,137.945 395.295,60.8961 395.797,67.2103 396.3,165.95 396.803,339.871 397.306,292.261 397.809,48.9753 398.311,86.0548 398.814,259.419 
  399.317,328.277 399.82,311.992 400.322,192.23 400.825,29.2816 401.328,143.764 401.831,359.306 402.333,274.093 402.836,127.984 403.339,91.2249 403.842,159.215 
  404.345,323.156 404.847,315.747 405.35,59.3722 405.853,89.1509 406.356,283.664 406.858,351.382 407.361,344.173 407.864,241.142 408.367,43.995 408.87,121.959 
  409.372,355.35 409.875,285.553 410.378,154.464 410.881,141.447 411.383,253.044 411.886,365.157 412.389,163.721 412.892,33.1361 413.394,242.585 413.897,356.338 
  414.4,364.585 414.903,329.284 415.406,140.188 415.908,35.9426 416.411,289.524 416.914,342.563 417.417,212.214 417.919,181.775 418.422,285.25 418.925,357.242 
  419.428,112.783 419.931,67.3433 420.433,303.218 420.936,365.539 421.439,364.642 421.942,331.287 422.444,112.238 422.947,64.7402 423.45,331.362 423.953,321.78 
  424.455,225.046 424.958,259.79 425.461,364.091 425.964,201.323 426.467,29.5561 426.969,270.54 427.472,365.16 427.975,350.951 428.478,363.654 428.98,206.106 
  429.483,24.9709 429.986,274.189 430.489,352.101 430.992,266.766 431.494,296.141 431.997,363.238 432.5,136.776 433.003,68.1968 433.505,331.067 434.008,348.933 
  434.511,334.833 435.014,362.252 435.516,159.256 436.019,51.209 436.522,324.977 437.025,338.699 437.528,297.175 438.03,359.371 438.533,248.711 439.036,22.9804 
  439.539,276.236 440.041,354.128 440.544,301.121 441.047,353.616 441.55,277.628 442.053,23.111 442.555,245.035 443.058,362.641 443.561,324.337 444.064,363.742 
  444.566,229.633 445.069,28.3382 445.572,309.363 446.075,332.29 446.577,268.927 447.08,345.826 447.583,272.667 448.086,22.187 448.589,267.117 449.091,362.667 
  449.594,349.182 450.097,348.561 450.6,87.4357 451.102,144.192 451.605,365.109 452.108,256.41 452.611,259.977 453.113,365.558 453.616,129.69 454.119,98.0507 
  454.622,348.21 455.125,359.494 455.627,360.792 456.13,151.046 456.633,83.4866 457.136,363.789 457.638,247.444 458.141,208.798 458.644,346.872 459.147,211.847 
  459.65,48.9273 460.152,319.233 460.655,365.323 461.158,349.612 461.661,111.349 462.163,130.778 462.666,361.843 463.169,198.161 463.672,185.608 464.174,351.987 
  464.677,171.276 465.18,78.8181 465.683,332.067 466.186,363.536 466.688,280.556 467.191,23.6458 467.694,300.851 468.197,276.273 468.699,131.46 469.202,221.268 
  469.705,355.649 470.208,39.2074 470.711,208.302 471.213,352.539 471.716,323.181 472.219,71.591 472.722,199.122 473.224,323.588 473.727,119.632 474.23,140.411 
  474.733,354.06 475.235,126.468 475.738,118.328 476.241,328.191 476.744,316.399 477.247,77.4884 477.749,194.624 478.252,315.23 478.755,95.0516 479.258,109.506 
  479.76,342.64 480.263,139.967 480.766,109.508 481.269,313.087 481.772,275.347 482.274,31.3395 482.777,293.291 483.28,233.067 483.783,58.0444 484.285,121.262 
  484.788,364.62 485.291,62.5724 485.794,169.739 486.296,301.311 486.799,163.175 487.302,73.7979 487.805,359.441 488.308,91.8652 488.81,42.6587 489.313,223.182 
  489.816,286.028 490.319,34.3702 490.821,250.924 491.324,227.449 491.827,22.1145 492.33,344.478 492.833,146.64 493.335,28.3474 493.838,106.026 494.341,364.667 
  494.844,34.3658 495.346,184.473 495.849,228.03 496.352,27.3883 496.855,317.157 497.357,162.755 497.86,23.513 498.363,64.3232 498.866,359.82 499.369,59.9343 
  499.871,149.921 500.374,199.836 500.877,22.2774 501.38,344.892 501.882,115.995 502.385,22.4625 502.888,63.7637 503.391,364.852 503.894,41.3002 504.396,152.744 
  504.899,143.898 505.402,55.3333 505.905,356.781 506.407,41.0555 506.91,25.9018 507.413,118.246 507.916,331.858 508.418,23.6644 508.921,161.678 509.424,49.8772 
  509.927,247.43 510.43,187.617 510.932,26.9331 511.435,22.1184 511.938,286.776 512.441,138.852 512.943,82.271 513.446,107.152 513.949,77.8034 514.452,333.625 
  514.955,22.9795 515.457,42.9695 515.96,109.159 516.463,317.365 516.966,25.6915 517.468,110.607 517.971,29.4341 518.474,365.561 518.977,35.7407 519.479,64.0127 
  519.982,38.2081 520.485,365.274 520.988,29.1399 521.491,90.599 521.993,24.4454 522.496,362.512 522.999,38.9189 523.502,81.9458 524.004,24.7248 524.507,362.295 
  525.01,40.8021 525.513,71.196 526.016,33.3478 526.518,364.882 527.021,24.3623 527.524,103.205 528.027,26.8646 528.529,365.552 529.032,31.5325 529.535,52.973 
  530.038,88.3252 530.54,309.789 531.043,36.1186 531.546,114.43 532.049,61.5876 532.552,327.877 533.054,22.1389 533.557,27.9707 534.06,251.582 534.563,122.697 
  535.065,111.528 535.568,80.0638 536.071,211.354 536.574,171.318 537.077,29.5557 537.579,49.1762 538.082,355.307 538.585,28.2015 539.088,171.784 539.59,22.3679 
  540.093,365.051 540.596,33.7752 541.099,22.1227 541.601,295.885 542.104,67.9892 542.607,168.936 543.11,94.3497 543.613,239.644 544.115,142.722 544.618,22.4218 
  545.121,166.618 545.624,199.889 546.126,126.895 546.629,181.492 547.132,81.1557 547.635,276.56 548.138,23.6627 548.64,105.542 549.143,286.385 549.646,94.3276 
  550.149,229.871 550.651,27.807 551.154,342.174 551.657,32.9551 552.16,93.9386 552.662,308.634 553.165,90.7763 553.668,257.011 554.171,22.1205 554.674,356.722 
  555.176,42.8392 555.679,115.654 556.182,278.894 556.685,123.591 557.187,272.332 557.69,22.8605 558.193,347.463 558.696,46.9177 559.199,178.867 559.701,180.812 
  560.204,197.299 560.707,268.824 561.21,46.8166 561.712,298.749 562.215,52.0689 562.718,293.925 563.221,45.8369 563.723,284.399 564.226,220.51 564.729,165.379 
  565.232,197.301 
  "/>
<polygon clip-path="url(#clip7400)" points="
489.608,62.931 562.315,62.931 562.315,32.691 489.608,32.691 
  " fill="#363c46" fill-opacity="1"/>
<polyline clip-path="url(#clip7400)" style="stroke:#ffffff; stroke-width:1; stroke-opacity:1; fill:none" points="
  489.608,62.931 562.315,62.931 562.315,32.691 489.608,32.691 489.608,62.931 
  "/>
<polyline clip-path="url(#clip7400)" style="stroke:#ff0000; stroke-width:2; stroke-opacity:1; fill:none" points="
  495.608,47.811 531.608,47.811 
  "/>
<g clip-path="url(#clip7400)">
<text style="fill:#adb2b7; fill-opacity:1; font-family:Arial,Helvetica Neue,Helvetica,sans-serif; font-size:12; text-anchor:start;" transform="rotate(0, 537.608, 52.311)" x="537.608" y="52.311">y1</text>
</g>
</svg>
