<?xml version="1.0" encoding="utf-8"?>
<svg xmlns="http://www.w3.org/2000/svg" width="600" height="400" viewBox="0 0 600 400">
<defs>
  <clipPath id="clip7200">
    <rect x="0" y="0" width="600" height="400"/>
  </clipPath>
</defs>
<polygon clip-path="url(#clip7200)" points="
0,400 600,400 600,0 0,0 
  " fill="#363c46" fill-opacity="1"/>
<defs>
  <clipPath id="clip7201">
    <rect x="120" y="0" width="421" height="400"/>
  </clipPath>
</defs>
<polygon clip-path="url(#clip7200)" points="
40.3485,375.869 580.315,375.869 580.315,31.4961 40.3485,31.4961 
  " fill="#30343b" fill-opacity="1"/>
<defs>
  <clipPath id="clip7202">
    <rect x="40" y="31" width="541" height="345"/>
  </clipPath>
</defs>
<g clip-path="url(#clip7200)">
<text style="fill:#adb2b7; fill-opacity:1; font-family:Arial,Helvetica Neue,Helvetica,sans-serif; font-size:21; text-anchor:middle;" transform="rotate(0, 310.332, 18)" x="310.332" y="18">USDT trading distribution Binance</text>
</g>
<polygon clip-path="url(#clip7200)" points="
310.332,230.681 455.52,230.681 455.498,228.147 455.431,225.614 455.321,223.082 455.166,220.553 454.967,218.027 454.724,215.504 454.438,212.987 454.107,210.474 
  453.732,207.968 453.314,205.469 452.852,202.978 452.347,200.494 451.799,198.021 451.207,195.557 450.573,193.103 449.895,190.661 449.176,188.232 448.414,185.815 
  447.61,183.412 446.764,181.023 445.876,178.65 444.948,176.292 443.978,173.951 442.968,171.627 441.917,169.322 440.826,167.034 439.695,164.767 438.525,162.519 
  437.316,160.292 436.068,158.087 434.782,155.903 433.458,153.743 432.097,151.606 430.698,149.493 429.263,147.404 427.791,145.341 426.284,143.304 424.741,141.294 
  423.164,139.311 421.552,137.356 419.906,135.429 418.227,133.531 416.516,131.663 414.771,129.825 412.995,128.017 411.188,126.241 409.35,124.497 407.481,122.785 
  405.584,121.106 403.657,119.46 401.701,117.848 399.718,116.271 397.708,114.728 395.671,113.221 393.608,111.75 391.52,110.314 389.407,108.916 387.27,107.554 
  385.109,106.23 382.926,104.944 380.72,103.696 378.493,102.487 376.246,101.317 373.978,100.187 371.691,99.0957 369.385,98.0449 367.061,97.0344 364.72,96.0647 
  362.362,95.136 359.989,94.2486 357.6,93.4028 355.197,92.5987 352.781,91.8367 350.351,91.117 347.909,90.4399 345.456,89.8054 342.992,89.2139 340.518,88.6654 
  338.035,88.1602 335.543,87.6984 333.044,87.2802 330.538,86.9057 328.026,86.5749 325.508,86.2881 322.986,86.0452 320.46,85.8464 317.93,85.6917 315.399,85.5812 
  312.866,85.5148 310.332,85.4927 307.798,85.5148 305.265,85.5812 302.733,85.6917 300.204,85.8464 297.678,86.0452 295.155,86.2881 292.638,86.5749 290.125,86.9057 
  287.619,87.2802 285.12,87.6984 282.629,88.1602 280.145,88.6654 277.672,89.2139 275.208,89.8054 272.754,90.4399 270.313,91.117 267.883,91.8367 265.466,92.5987 
  263.063,93.4028 260.675,94.2486 258.301,95.136 255.943,96.0647 253.602,97.0344 251.278,98.0449 248.973,99.0957 246.686,100.187 244.418,101.317 242.17,102.487 
  239.943,103.696 237.738,104.944 235.554,106.23 233.394,107.554 231.257,108.916 229.144,110.314 227.055,111.75 224.992,113.221 222.955,114.728 220.945,116.271 
  218.962,117.848 217.007,119.46 215.08,121.106 213.182,122.785 211.314,124.497 209.476,126.241 207.668,128.017 205.892,129.825 204.148,131.663 202.436,133.531 
  
  " fill="#ffb200" fill-opacity="1"/>
<g clip-path="url(#clip7200)">
<text style="fill:#ffffff; fill-opacity:1; font-family:Arial,Helvetica Neue,Helvetica,sans-serif; font-size:12; text-anchor:start;" transform="rotate(0, 403.566, 86.0816)" x="403.566" y="86.0816">BTC</text>
</g>
<polyline clip-path="url(#clip7200)" style="stroke:#000000; stroke-width:1; stroke-opacity:1; fill:none" points="
  362.362,95.136 367.566,81.5816 397.566,81.5816 
  "/>
<polygon clip-path="url(#clip7200)" points="
310.332,230.681 202.436,133.531 200.757,135.429 199.111,137.356 197.499,139.311 195.922,141.294 194.379,143.304 192.872,145.341 191.401,147.404 189.965,149.493 
  188.567,151.606 187.205,153.743 185.881,155.903 184.595,158.087 183.347,160.292 182.138,162.519 180.968,164.767 179.838,167.034 
  " fill="#7f3e74" fill-opacity="1"/>
<g clip-path="url(#clip7200)">
<text style="fill:#ffffff; fill-opacity:1; font-family:Arial,Helvetica Neue,Helvetica,sans-serif; font-size:12; text-anchor:end;" transform="rotate(0, 141.929, 145.874)" x="141.929" y="145.874">ETH</text>
</g>
<polyline clip-path="url(#clip7200)" style="stroke:#000000; stroke-width:1; stroke-opacity:1; fill:none" points="
  189.965,149.493 177.929,141.374 147.929,141.374 
  "/>
<polygon clip-path="url(#clip7200)" points="
310.332,230.681 179.838,167.034 178.747,169.322 
  " fill="#ff6700" fill-opacity="1"/>
<g clip-path="url(#clip7200)">
<text style="fill:#ffffff; fill-opacity:1; font-family:Arial,Helvetica Neue,Helvetica,sans-serif; font-size:12; text-anchor:end;" transform="rotate(0, 130.183, 166.425)" x="130.183" y="166.425">BNB</text>
</g>
<polyline clip-path="url(#clip7200)" style="stroke:#000000; stroke-width:1; stroke-opacity:1; fill:none" points="
  179.287,168.176 166.183,161.925 136.183,161.925 
  "/>
<polygon clip-path="url(#clip7200)" points="
310.332,230.681 178.747,169.322 177.696,171.627 176.685,173.951 175.716,176.292 174.787,178.65 173.9,181.023 173.054,183.412 172.25,185.815 171.488,188.232 
  170.768,190.661 170.091,193.103 169.456,195.557 168.865,198.021 168.316,200.494 167.811,202.978 167.349,205.469 166.931,207.968 166.557,210.474 166.226,212.987 
  165.939,215.504 165.696,218.027 165.497,220.553 165.343,223.082 165.232,225.614 165.166,228.147 165.144,230.681 165.166,233.215 165.232,235.748 165.343,238.279 
  165.497,240.808 165.696,243.335 165.939,245.857 166.226,248.375 166.557,250.887 166.931,253.393 167.349,255.892 167.811,258.384 168.316,260.867 168.865,263.341 
  169.456,265.805 170.091,268.258 170.768,270.7 171.488,273.13 172.25,275.546 173.054,277.949 173.9,280.338 174.787,282.711 175.716,285.069 176.685,287.41 
  177.696,289.734 178.747,292.04 179.838,294.327 180.968,296.595 182.138,298.842 183.347,301.069 184.595,303.275 185.881,305.458 187.205,307.619 188.567,309.756 
  189.965,311.869 191.401,313.957 192.872,316.02 194.379,318.057 195.922,320.067 197.499,322.05 199.111,324.006 200.757,325.933 202.436,327.83 204.148,329.699 
  205.892,331.537 207.668,333.344 209.476,335.12 211.314,336.864 213.182,338.576 215.08,340.255 217.007,341.901 218.962,343.513 220.945,345.09 222.955,346.633 
  224.992,348.14 227.055,349.612 229.144,351.047 231.257,352.446 233.394,353.807 235.554,355.131 237.738,356.417 239.943,357.665 242.17,358.874 244.418,360.044 
  246.686,361.175 248.973,362.266 251.278,363.317 253.602,364.327 255.943,365.297 258.301,366.225 260.675,367.113 263.063,367.959 265.466,368.763 267.883,369.525 
  270.313,370.244 272.754,370.922 275.208,371.556 277.672,372.148 280.145,372.696 282.629,373.201 285.12,373.663 287.619,374.081 290.125,374.456 292.638,374.786 
  295.155,375.073 297.678,375.316 300.204,375.515 302.733,375.67 305.265,375.78 307.798,375.847 310.332,375.869 312.866,375.847 315.399,375.78 317.93,375.67 
  320.46,375.515 322.986,375.316 325.508,375.073 328.026,374.786 330.538,374.456 333.044,374.081 335.543,373.663 338.035,373.201 340.518,372.696 342.992,372.148 
  345.456,371.556 347.909,370.922 350.351,370.244 352.781,369.525 355.197,368.763 357.6,367.959 359.989,367.113 362.362,366.225 364.72,365.297 367.061,364.327 
  369.385,363.317 371.691,362.266 373.978,361.175 376.246,360.044 378.493,358.874 380.72,357.665 382.926,356.417 385.109,355.131 387.27,353.807 389.407,352.446 
  391.52,351.047 393.608,349.612 395.671,348.14 397.708,346.633 399.718,345.09 401.701,343.513 403.657,341.901 405.584,340.255 407.481,338.576 409.35,336.864 
  411.188,335.12 412.995,333.344 414.771,331.537 416.516,329.699 418.227,327.83 419.906,325.933 421.552,324.006 423.164,322.05 424.741,320.067 426.284,318.057 
  427.791,316.02 429.263,313.957 430.698,311.869 432.097,309.756 433.458,307.619 434.782,305.458 436.068,303.275 437.316,301.069 438.525,298.842 439.695,296.595 
  440.826,294.327 441.917,292.04 442.968,289.734 443.978,287.41 444.948,285.069 445.876,282.711 446.764,280.338 447.61,277.949 448.414,275.546 449.176,273.13 
  449.895,270.7 450.573,268.258 451.207,265.805 451.799,263.341 452.347,260.867 452.852,258.384 453.314,255.892 453.732,253.393 454.107,250.887 454.438,248.375 
  454.724,245.857 454.967,243.335 455.166,240.808 455.321,238.279 455.431,235.748 455.498,233.215 455.52,230.681 
  " fill="#59a3c0" fill-opacity="1"/>
<g clip-path="url(#clip7200)">
<text style="fill:#ffffff; fill-opacity:1; font-family:Arial,Helvetica Neue,Helvetica,sans-serif; font-size:12; text-anchor:end;" transform="rotate(0, 239.765, 391.102)" x="239.765" y="391.102">SDT</text>
</g>
<polyline clip-path="url(#clip7200)" style="stroke:#000000; stroke-width:1; stroke-opacity:1; fill:none" points="
  278.907,372.427 275.765,386.602 245.765,386.602 
  "/>
</svg>
